<svg height="512pt" viewBox="0 0 512 512" width="512pt" xmlns="http://www.w3.org/2000/svg"><path d="m21.261719 490.738281 99.136719-17.582031c39.324218 24.605469 85.796874 38.84375 135.601562 38.84375 141.386719 0 256-114.613281 256-256 0-70.691406-28.652344-134.691406-74.980469-181.019531l-192.515625 152.484375zm0 0" fill="#00cc76"/><path d="m256 0c-141.386719 0-256 114.613281-256 256 0 49.804688 14.238281 96.277344 38.84375 135.601562l-17.582031 99.136719 415.757812-415.757812c-46.328125-46.328125-110.328125-74.980469-181.019531-74.980469zm0 0" fill="#90e36a"/><path d="m189.929688 243.269531 65.871093-65.871093-77.722656-77.722657-45.105469 45.105469zm0 0" fill="#e1ebf0"/><path d="m367.21875 379.027344 45.105469-45.105469-77.722657-77.722656-61.414062 61.414062zm0 0" fill="#b4d2d7"/><path d="m186.324219 325.675781 65.097656 65.097657c28.734375 28.734374 75.320313 28.734374 104.050781 0l11.746094-11.746094-117.121094-117.125-55.710937 7.097656zm0 0" fill="#e1ebf0"/><path d="m132.972656 144.78125-11.746094 11.746094c-28.734374 28.734375-28.734374 75.320312 0 104.050781l65.097657 65.097656 63.773437-63.773437zm0 0" fill="#fff5f5"/></svg>